<svg width="14" height="14" viewBox="0 0 17 18" fill="none" xmlns="http://www.w3.org/2000/svg">
<path d="M13.5614 16.5229C13.4439 16.524 13.3278 16.4967 13.2231 16.4433L8.81781 14.1469L4.41248 16.4433C4.29505 16.503 4.16351 16.5292 4.0322 16.5192C3.90089 16.5092 3.77485 16.4633 3.66784 16.3865C3.56103 16.3091 3.47787 16.2035 3.42767 16.0815C3.37747 15.9596 3.36222 15.826 3.38362 15.6959L4.19932 10.7875L0.646631 7.29732C0.552072 7.20483 0.485206 7.08779 0.453559 6.95936C0.421913 6.83093 0.426742 6.69622 0.467505 6.57038C0.508267 6.44455 0.583344 6.3326 0.684284 6.24712C0.785224 6.16164 0.908019 6.10604 1.03885 6.08656L5.95861 5.33624L8.18117 0.8968C8.2407 0.779049 8.33172 0.680115 8.44411 0.610998C8.5565 0.54188 8.68586 0.505287 8.81781 0.505287C8.94975 0.505287 9.07911 0.54188 9.1915 0.610998C9.3039 0.680115 9.39492 0.779049 9.45445 0.8968L11.677 5.33624L16.5968 6.07519C16.7276 6.09467 16.8504 6.15027 16.9513 6.23575C17.0523 6.32123 17.1273 6.43318 17.1681 6.55902C17.2089 6.68485 17.2137 6.81956 17.1821 6.94799C17.1504 7.07642 17.0835 7.19346 16.989 7.28595L13.4448 10.7875L14.2605 15.6959C14.2774 15.7975 14.272 15.9016 14.2447 16.0009C14.2173 16.1002 14.1687 16.1924 14.1022 16.2711C14.0357 16.3498 13.9529 16.4131 13.8595 16.4565C13.7661 16.5 13.6644 16.5227 13.5614 16.5229ZM8.81781 12.6377C8.93186 12.638 9.0441 12.6663 9.14466 12.7201L12.6263 14.5249L11.984 10.6567C11.9655 10.5444 11.9742 10.4293 12.0093 10.321C12.0444 10.2127 12.1049 10.1144 12.1858 10.0343L14.9796 7.28026L11.1029 6.69762C10.9898 6.68052 10.8825 6.63647 10.79 6.5692C10.6975 6.50193 10.6225 6.41341 10.5714 6.31109L8.81781 2.80388L7.0642 6.31109C7.01309 6.41341 6.93812 6.50193 6.84562 6.5692C6.75312 6.63647 6.64581 6.68052 6.53272 6.69762L2.65603 7.28026L5.44986 10.0343C5.53072 10.1144 5.59122 10.2127 5.62633 10.321C5.66143 10.4293 5.67012 10.5444 5.65165 10.6567L5.00933 14.5249L8.49096 12.7258C8.591 12.67 8.70327 12.6397 8.81781 12.6377Z" fill="#FFCB03"/>
</svg>
