<svg xmlns="http://www.w3.org/2000/svg" width="14" height="14" viewBox="0 0 17 18" fill="none">
    <path fill-rule="evenodd" clip-rule="evenodd"
        d="M13.1496 16.4433C13.2543 16.4967 13.3703 16.524 13.4878 16.5229C13.5908 16.5226 13.6926 16.5 13.786 16.4565C13.8794 16.413 13.9622 16.3497 14.0287 16.2711C14.0952 16.1924 14.1438 16.1002 14.1711 16.0009C14.1985 15.9015 14.2039 15.7975 14.187 15.6958L13.3713 10.7874L16.9154 7.28591C17.01 7.19342 17.0769 7.07638 17.1085 6.94795C17.1402 6.81952 17.1353 6.68481 17.0946 6.55898C17.0538 6.43315 16.9787 6.32119 16.8778 6.23571C16.7768 6.15024 16.654 6.09463 16.5232 6.07516L11.6035 5.3362L9.3809 0.896762C9.32137 0.779011 9.23035 0.680077 9.11796 0.610959C9.00556 0.541842 8.87621 0.505249 8.74426 0.505249C8.61232 0.505249 8.48296 0.541842 8.37056 0.610959C8.25817 0.680077 8.16715 0.779011 8.10762 0.896762L5.88506 5.3362L0.9653 6.08652C0.834472 6.106 0.711677 6.1616 0.610737 6.24708C0.509797 6.33256 0.43472 6.44451 0.393958 6.57035C0.353195 6.69618 0.348365 6.83089 0.380012 6.95932C0.411658 7.08775 0.478525 7.20479 0.573084 7.29728L4.12577 10.7874L3.31007 15.6958C3.28867 15.826 3.30393 15.9595 3.35412 16.0815C3.40432 16.2035 3.48748 16.3091 3.59429 16.3865C3.7013 16.4632 3.82734 16.5091 3.95865 16.5191C4.08996 16.5292 4.22151 16.5029 4.33893 16.4433L8.74426 14.1469L13.1496 16.4433Z"
        fill="#FFCB03" />
</svg>

