<?xml version="1.0" standalone="no"?>
<!DOCTYPE svg PUBLIC "-//W3C//DTD SVG 20010904//EN"
 "http://www.w3.org/TR/2001/REC-SVG-20010904/DTD/svg10.dtd">
<svg version="1.0" xmlns="http://www.w3.org/2000/svg"
 width="326.000000pt" height="326.000000pt" viewBox="0 0 326.000000 326.000000"
 preserveAspectRatio="xMidYMid meet">
<metadata>
Created by potrace 1.14, written by Peter Selinger 2001-2017
</metadata>
<g transform="translate(0.000000,326.000000) scale(0.100000,-0.100000)"
fill="#000000" stroke="none">
<path d="M1400 3243 c-362 -54 -675 -212 -930 -472 -147 -150 -254 -307 -329
-481 -12 -30 -29 -68 -36 -85 -65 -148 -104 -378 -100 -600 3 -273 54 -478
177 -719 38 -75 104 -185 117 -196 4 -3 14 -17 24 -32 34 -55 152 -182 234
-253 253 -222 563 -358 898 -395 148 -16 349 -7 511 24 120 23 340 105 447
168 26 15 50 28 52 28 6 0 133 88 180 124 63 49 217 205 272 276 153 197 261
436 313 690 27 131 35 401 15 530 -19 121 -21 128 -45 216 -169 607 -666 1056
-1293 1170 -122 22 -382 26 -507 7z"/>
</g>
</svg>
